# xmcd
#
# Track frame offsets: 
#        150
#        19850
#        33618
#        49350
#        68697
#        81698
#        97006
#        114147
#        132886
#
# Disc length: 2173 seconds
#
# Revision: 0
# Processed by: cddbd v1.5.2PL0 Copyright (c) Steve Scherf et al.
# Submitted via: ExactAudioCopy v1.0b3
#
DISCID=7a087b09
DTITLE=CosmosHippie - CosmosHippie 3
DYEAR=2014
DGENRE=Blues
TTITLE0=괜찮아요
TTITLE1=적당한 거리
TTITLE2=끝나가는 시절
TTITLE3=신기록
TTITLE4=돈
TTITLE5=뭔가있어
TTITLE6=지금
TTITLE7=머뭇거리다
TTITLE8=Before sunrise
EXTD=
EXTT0=
EXTT1=
EXTT2=
EXTT3=
EXTT4=
EXTT5=
EXTT6=
EXTT7=
EXTT8=
PLAYORDER=
